<mxfile host="app.diagrams.net" modified="2024-05-07T06:30:40.477Z" agent="Mozilla/5.0 (Macintosh; Intel Mac OS X 10_15_7) AppleWebKit/605.1.15 (KHTML, like Gecko) Version/17.4.1 Safari/605.1.15" etag="KYZdIJmHpZRgr335hQrk" version="24.3.1" type="github" pages="2">
  <diagram name="collection" id="N_CIKplRmD34ISpjQVyY">
    <mxGraphModel dx="1191" dy="1129" grid="1" gridSize="10" guides="1" tooltips="1" connect="1" arrows="1" fold="1" page="0" pageScale="1" pageWidth="850" pageHeight="1100" math="0" shadow="0">
      <root>
        <mxCell id="0" />
        <mxCell id="1" parent="0" />
        <mxCell id="TMKRBCzvs0gfoDrvslkT-5" style="edgeStyle=orthogonalEdgeStyle;rounded=0;orthogonalLoop=1;jettySize=auto;html=1;entryX=0.5;entryY=1;entryDx=0;entryDy=0;" parent="1" source="8qF9MvdjFyCx3xQRs_l2-4" target="0of4-0cHT8gc_cpD0exL-45" edge="1">
          <mxGeometry relative="1" as="geometry" />
        </mxCell>
        <mxCell id="8qF9MvdjFyCx3xQRs_l2-4" value="internal ความลับ  *" style="rounded=1;arcSize=10;dashed=1;strokeColor=#ff0000;fillColor=none;gradientColor=none;dashPattern=8 4;strokeWidth=2;textShadow=0;align=center;glass=0;fontColor=#FF0000;verticalAlign=top;fontSize=14;" parent="1" vertex="1">
          <mxGeometry x="163.19" y="172" width="318.62" height="368" as="geometry" />
        </mxCell>
        <mxCell id="Nf1m1TZT0g2i1Bwr5nnO-6" value="address&#xa;address_link&#xa;cfg_province&#xa;cfg_district&#xa;cfg_sub_district&#xa;contract_rel_customer&#xa;customer_personal&#xa;contract&#xa;oldest_bill_due_date&#xa;unpaid_bill&#xa;hp_eod_account&#xa;eod_sub_account&#xa;customer&#xa;invoice&#xa;" style="text;whiteSpace=wrap;fillColor=#fff2cc;strokeColor=#d6b656;" parent="1" vertex="1">
          <mxGeometry x="262.5" y="310" width="127.5" height="208" as="geometry" />
        </mxCell>
        <mxCell id="TMKRBCzvs0gfoDrvslkT-9" style="edgeStyle=orthogonalEdgeStyle;rounded=0;orthogonalLoop=1;jettySize=auto;html=1;entryX=0;entryY=0.5;entryDx=0;entryDy=0;" parent="1" source="Nf1m1TZT0g2i1Bwr5nnO-13" target="0of4-0cHT8gc_cpD0exL-10" edge="1">
          <mxGeometry relative="1" as="geometry" />
        </mxCell>
        <mxCell id="Nf1m1TZT0g2i1Bwr5nnO-13" value="collection 192.168.4.141" style="shape=cylinder3;whiteSpace=wrap;html=1;boundedLbl=1;backgroundOutline=1;size=15;fillColor=#dae8fc;strokeColor=#6c8ebf;" parent="1" vertex="1">
          <mxGeometry x="500" y="-66.93" width="100" height="100" as="geometry" />
        </mxCell>
        <mxCell id="-Oac6_u8oQMQz9Het2ZQ-1" style="edgeStyle=orthogonalEdgeStyle;rounded=0;orthogonalLoop=1;jettySize=auto;html=1;" parent="1" source="Nf1m1TZT0g2i1Bwr5nnO-21" edge="1">
          <mxGeometry relative="1" as="geometry">
            <mxPoint x="120" y="-270" as="targetPoint" />
          </mxGeometry>
        </mxCell>
        <mxCell id="Nf1m1TZT0g2i1Bwr5nnO-21" value="&lt;div style=&quot;text-align: left;&quot;&gt;stagging&lt;/div&gt;&lt;div&gt;192.168.30.209&lt;br&gt;&lt;/div&gt;" style="shape=cylinder3;whiteSpace=wrap;html=1;boundedLbl=1;backgroundOutline=1;size=15;fillColor=#d5e8d4;strokeColor=#82b366;" parent="1" vertex="1">
          <mxGeometry x="190" y="-310" width="70" height="80" as="geometry" />
        </mxCell>
        <mxCell id="bzwR7am9XMDccwwjt7F8-6" style="edgeStyle=orthogonalEdgeStyle;rounded=0;orthogonalLoop=1;jettySize=auto;html=1;entryX=0.5;entryY=0;entryDx=0;entryDy=0;" parent="1" source="Nf1m1TZT0g2i1Bwr5nnO-35" target="Nf1m1TZT0g2i1Bwr5nnO-31" edge="1">
          <mxGeometry relative="1" as="geometry" />
        </mxCell>
        <mxCell id="Nf1m1TZT0g2i1Bwr5nnO-35" value="daily_application&#xa;daily_cash_receive&#xa;daily_collection&#xa;daily_contract&#xa;daily_customer&#xa;daily_guarantor&#xa;daily_installment&#xa;daily_registration" style="text;whiteSpace=wrap;fillColor=#d5e8d4;strokeColor=#82b366;" parent="1" vertex="1">
          <mxGeometry x="262.5" y="-340" width="120" height="130" as="geometry" />
        </mxCell>
        <mxCell id="0of4-0cHT8gc_cpD0exL-1" value="&lt;div&gt;&lt;span style=&quot;background-color: initial;&quot;&gt;somsak,paopapat&lt;/span&gt;&lt;br&gt;&lt;/div&gt;" style="shape=umlActor;verticalLabelPosition=bottom;verticalAlign=top;html=1;outlineConnect=0;" parent="1" vertex="1">
          <mxGeometry x="1590" y="-340" width="30" height="60" as="geometry" />
        </mxCell>
        <mxCell id="bzwR7am9XMDccwwjt7F8-15" style="edgeStyle=orthogonalEdgeStyle;rounded=0;orthogonalLoop=1;jettySize=auto;html=1;entryX=0;entryY=0.5;entryDx=0;entryDy=0;" parent="1" source="TMKRBCzvs0gfoDrvslkT-10" target="F27ALehWRb684vpIebyI-6" edge="1">
          <mxGeometry relative="1" as="geometry">
            <mxPoint x="950" y="-16.930000000000064" as="targetPoint" />
          </mxGeometry>
        </mxCell>
        <mxCell id="F27ALehWRb684vpIebyI-3" style="edgeStyle=orthogonalEdgeStyle;rounded=0;orthogonalLoop=1;jettySize=auto;html=1;exitX=1;exitY=0.5;exitDx=0;exitDy=0;" parent="1" source="0of4-0cHT8gc_cpD0exL-10" target="F27ALehWRb684vpIebyI-2" edge="1">
          <mxGeometry relative="1" as="geometry" />
        </mxCell>
        <mxCell id="0of4-0cHT8gc_cpD0exL-10" value="master" style="text;whiteSpace=wrap;fillColor=#e1d5e7;strokeColor=#9673a6;" parent="1" vertex="1">
          <mxGeometry x="630" y="-30.39" width="50" height="26.93" as="geometry" />
        </mxCell>
        <mxCell id="0of4-0cHT8gc_cpD0exL-15" value="report excel OA&amp;nbsp;" style="shape=image;html=1;verticalAlign=top;verticalLabelPosition=bottom;labelBackgroundColor=#ffffff;imageAspect=0;aspect=fixed;image=https://cdn1.iconfinder.com/data/icons/Futurosoft%20Icons%200.5.2/128x128/mimetypes/xls.png" parent="1" vertex="1">
          <mxGeometry x="1261" y="-160" width="60" height="60" as="geometry" />
        </mxCell>
        <mxCell id="-Oac6_u8oQMQz9Het2ZQ-3" style="edgeStyle=orthogonalEdgeStyle;rounded=0;orthogonalLoop=1;jettySize=auto;html=1;" parent="1" source="0of4-0cHT8gc_cpD0exL-28" edge="1">
          <mxGeometry relative="1" as="geometry">
            <mxPoint x="110" y="249" as="targetPoint" />
          </mxGeometry>
        </mxCell>
        <mxCell id="0of4-0cHT8gc_cpD0exL-28" value="LMS-prod( standby) read only&lt;div&gt;192.168.14.39&lt;/div&gt;" style="shape=cylinder3;whiteSpace=wrap;html=1;boundedLbl=1;backgroundOutline=1;size=15;fillColor=#fff2cc;strokeColor=#d6b656;" parent="1" vertex="1">
          <mxGeometry x="278.88" y="210" width="80" height="78" as="geometry" />
        </mxCell>
        <mxCell id="0of4-0cHT8gc_cpD0exL-29" value="LMS master" style="shape=cylinder3;whiteSpace=wrap;html=1;boundedLbl=1;backgroundOutline=1;size=15;fillColor=#fff2cc;strokeColor=#d6b656;" parent="1" vertex="1">
          <mxGeometry x="382.5" y="210" width="80" height="78" as="geometry" />
        </mxCell>
        <mxCell id="0of4-0cHT8gc_cpD0exL-34" value="LMS standby" style="shape=cylinder3;whiteSpace=wrap;html=1;boundedLbl=1;backgroundOutline=1;size=15;fillColor=#fff2cc;strokeColor=#d6b656;" parent="1" vertex="1">
          <mxGeometry x="182.5" y="210" width="80" height="78" as="geometry" />
        </mxCell>
        <mxCell id="0of4-0cHT8gc_cpD0exL-45" value="lms_prod (ข้อมูลครบ)&#xa;&#xa;" style="text;whiteSpace=wrap;fontStyle=1;labelBorderColor=none;textShadow=0;labelBackgroundColor=none;rounded=0;strokeColor=#6c8ebf;fillColor=#dae8fc;align=center;" parent="1" vertex="1">
          <mxGeometry x="251.38" y="80" width="142.25" height="22.76" as="geometry" />
        </mxCell>
        <mxCell id="0of4-0cHT8gc_cpD0exL-62" value="" style="shape=image;html=1;verticalAlign=top;verticalLabelPosition=bottom;labelBackgroundColor=#ffffff;imageAspect=0;aspect=fixed;image=https://cdn4.iconfinder.com/data/icons/travello-basic-ui-1/64/Wrong-128.png" parent="1" vertex="1">
          <mxGeometry x="210" y="210" width="20" height="20" as="geometry" />
        </mxCell>
        <mxCell id="0of4-0cHT8gc_cpD0exL-63" value="" style="shape=image;html=1;verticalAlign=top;verticalLabelPosition=bottom;labelBackgroundColor=#ffffff;imageAspect=0;aspect=fixed;image=https://cdn3.iconfinder.com/data/icons/flat-actions-icons-9/792/Tick_Mark_Dark-128.png" parent="1" vertex="1">
          <mxGeometry x="303.88" y="200" width="30" height="30" as="geometry" />
        </mxCell>
        <mxCell id="n4ZRNCnwu2M69PV4FqZp-1" value="CDE" style="sketch=0;points=[[0,0,0],[0.25,0,0],[0.5,0,0],[0.75,0,0],[1,0,0],[0,1,0],[0.25,1,0],[0.5,1,0],[0.75,1,0],[1,1,0],[0,0.25,0],[0,0.5,0],[0,0.75,0],[1,0.25,0],[1,0.5,0],[1,0.75,0]];outlineConnect=0;fontColor=#232F3E;fillColor=#E7157B;strokeColor=#ffffff;dashed=0;verticalLabelPosition=bottom;verticalAlign=top;align=center;html=1;fontSize=12;fontStyle=0;aspect=fixed;shape=mxgraph.aws4.resourceIcon;resIcon=mxgraph.aws4.managed_workflows_for_apache_airflow;" parent="1" vertex="1">
          <mxGeometry x="292.5" y="-40" width="60" height="60" as="geometry" />
        </mxCell>
        <mxCell id="TMKRBCzvs0gfoDrvslkT-6" value="4:00" style="edgeStyle=orthogonalEdgeStyle;rounded=0;orthogonalLoop=1;jettySize=auto;html=1;" parent="1" source="Nf1m1TZT0g2i1Bwr5nnO-31" target="n4ZRNCnwu2M69PV4FqZp-1" edge="1">
          <mxGeometry relative="1" as="geometry" />
        </mxCell>
        <mxCell id="Nf1m1TZT0g2i1Bwr5nnO-31" value="kbtg_prod (ข้อมูลครบ)&#xa;&#xa;" style="text;whiteSpace=wrap;fontStyle=1;labelBorderColor=none;textShadow=0;labelBackgroundColor=none;rounded=0;strokeColor=#6c8ebf;fillColor=#dae8fc;" parent="1" vertex="1">
          <mxGeometry x="255" y="-140" width="135" height="30" as="geometry" />
        </mxCell>
        <mxCell id="bzwR7am9XMDccwwjt7F8-11" style="edgeStyle=orthogonalEdgeStyle;rounded=0;orthogonalLoop=1;jettySize=auto;html=1;entryX=0.03;entryY=0.569;entryDx=0;entryDy=0;entryPerimeter=0;" parent="1" source="n4ZRNCnwu2M69PV4FqZp-1" target="Nf1m1TZT0g2i1Bwr5nnO-13" edge="1">
          <mxGeometry relative="1" as="geometry" />
        </mxCell>
        <mxCell id="bzwR7am9XMDccwwjt7F8-17" value="" style="shape=image;html=1;verticalAlign=top;verticalLabelPosition=bottom;labelBackgroundColor=#ffffff;imageAspect=0;aspect=fixed;image=https://cdn4.iconfinder.com/data/icons/travello-basic-ui-1/64/Wrong-128.png" parent="1" vertex="1">
          <mxGeometry x="412.5" y="205" width="20" height="20" as="geometry" />
        </mxCell>
        <mxCell id="TMKRBCzvs0gfoDrvslkT-4" value="4:00" style="edgeStyle=orthogonalEdgeStyle;rounded=0;orthogonalLoop=1;jettySize=auto;html=1;exitX=0.5;exitY=0;exitDx=0;exitDy=0;entryX=0.5;entryY=1;entryDx=0;entryDy=0;entryPerimeter=0;" parent="1" source="0of4-0cHT8gc_cpD0exL-45" target="n4ZRNCnwu2M69PV4FqZp-1" edge="1">
          <mxGeometry relative="1" as="geometry" />
        </mxCell>
        <mxCell id="F27ALehWRb684vpIebyI-11" value="" style="edgeStyle=orthogonalEdgeStyle;rounded=0;orthogonalLoop=1;jettySize=auto;html=1;" parent="1" source="TMKRBCzvs0gfoDrvslkT-10" target="F27ALehWRb684vpIebyI-6" edge="1">
          <mxGeometry relative="1" as="geometry" />
        </mxCell>
        <mxCell id="TMKRBCzvs0gfoDrvslkT-10" value="tempdata" style="text;whiteSpace=wrap;fillColor=#e1d5e7;strokeColor=#9673a6;" parent="1" vertex="1">
          <mxGeometry x="890" y="-30.39" width="60" height="26.93" as="geometry" />
        </mxCell>
        <mxCell id="F27ALehWRb684vpIebyI-4" style="edgeStyle=orthogonalEdgeStyle;rounded=0;orthogonalLoop=1;jettySize=auto;html=1;exitX=1;exitY=0.5;exitDx=0;exitDy=0;exitPerimeter=0;" parent="1" source="F27ALehWRb684vpIebyI-2" target="TMKRBCzvs0gfoDrvslkT-10" edge="1">
          <mxGeometry relative="1" as="geometry" />
        </mxCell>
        <mxCell id="F27ALehWRb684vpIebyI-2" value="CDE" style="sketch=0;points=[[0,0,0],[0.25,0,0],[0.5,0,0],[0.75,0,0],[1,0,0],[0,1,0],[0.25,1,0],[0.5,1,0],[0.75,1,0],[1,1,0],[0,0.25,0],[0,0.5,0],[0,0.75,0],[1,0.25,0],[1,0.5,0],[1,0.75,0]];outlineConnect=0;fontColor=#232F3E;fillColor=#E7157B;strokeColor=#ffffff;dashed=0;verticalLabelPosition=bottom;verticalAlign=top;align=center;html=1;fontSize=12;fontStyle=0;aspect=fixed;shape=mxgraph.aws4.resourceIcon;resIcon=mxgraph.aws4.managed_workflows_for_apache_airflow;" parent="1" vertex="1">
          <mxGeometry x="730" y="-46.93" width="60" height="60" as="geometry" />
        </mxCell>
        <mxCell id="F27ALehWRb684vpIebyI-6" value="IDE" style="shape=image;html=1;verticalAlign=top;verticalLabelPosition=bottom;labelBackgroundColor=#ffffff;imageAspect=0;aspect=fixed;image=https://cdn1.iconfinder.com/data/icons/DarkGlass_Reworked/128x128/mimetypes/source_py.png" parent="1" vertex="1">
          <mxGeometry x="1130" y="-66.93" width="98" height="98" as="geometry" />
        </mxCell>
        <mxCell id="F27ALehWRb684vpIebyI-10" value="" style="shape=image;html=1;verticalAlign=top;verticalLabelPosition=bottom;labelBackgroundColor=#ffffff;imageAspect=0;aspect=fixed;image=https://cdn0.iconfinder.com/data/icons/logos-microsoft-office-365/128/Microsoft_Office-09-128.png" parent="1" vertex="1">
          <mxGeometry x="1247" y="-46.93000000000001" width="88" height="88" as="geometry" />
        </mxCell>
        <mxCell id="F27ALehWRb684vpIebyI-14" value="&lt;h1 style=&quot;margin-top: 0px;&quot;&gt;Heading&lt;/h1&gt;&lt;p&gt;Lorem ipsum dolor sit amet, consectetur adipisicing elit, sed do eiusmod tempor incididunt ut labore et dolore magna aliqua.&lt;/p&gt;" style="text;html=1;whiteSpace=wrap;overflow=hidden;rounded=0;" parent="1" vertex="1">
          <mxGeometry x="960" y="90" width="180" height="120" as="geometry" />
        </mxCell>
        <mxCell id="-Oac6_u8oQMQz9Het2ZQ-4" value="DA" style="shape=umlActor;verticalLabelPosition=bottom;verticalAlign=top;html=1;outlineConnect=0;" parent="1" vertex="1">
          <mxGeometry x="70" y="219" width="30" height="60" as="geometry" />
        </mxCell>
        <mxCell id="-Oac6_u8oQMQz9Het2ZQ-5" value="DA" style="shape=umlActor;verticalLabelPosition=bottom;verticalAlign=top;html=1;outlineConnect=0;" parent="1" vertex="1">
          <mxGeometry x="80" y="-305" width="30" height="60" as="geometry" />
        </mxCell>
      </root>
    </mxGraphModel>
  </diagram>
  <diagram id="tP_nbM23TUc5NRDQXw0o" name="Page-2">
    <mxGraphModel dx="1191" dy="729" grid="1" gridSize="10" guides="1" tooltips="1" connect="1" arrows="1" fold="1" page="1" pageScale="1" pageWidth="827" pageHeight="1169" math="0" shadow="0">
      <root>
        <mxCell id="0" />
        <mxCell id="1" parent="0" />
        <mxCell id="KfuTBqo6q_dxBihYBPka-1" value="" style="endArrow=none;dashed=1;html=1;dashPattern=1 3;strokeWidth=2;rounded=0;" edge="1" parent="1">
          <mxGeometry width="50" height="50" relative="1" as="geometry">
            <mxPoint x="428.1" y="670.05" as="sourcePoint" />
            <mxPoint x="430" y="70" as="targetPoint" />
          </mxGeometry>
        </mxCell>
        <mxCell id="KfuTBqo6q_dxBihYBPka-3" value="RDT" style="whiteSpace=wrap;html=1;aspect=fixed;" vertex="1" parent="1">
          <mxGeometry x="200" y="80" width="80" height="80" as="geometry" />
        </mxCell>
        <mxCell id="KfuTBqo6q_dxBihYBPka-4" value="Collection" style="whiteSpace=wrap;html=1;aspect=fixed;" vertex="1" parent="1">
          <mxGeometry x="200" y="190" width="80" height="80" as="geometry" />
        </mxCell>
        <mxCell id="KfuTBqo6q_dxBihYBPka-7" value="" style="endArrow=classic;html=1;rounded=0;" edge="1" parent="1">
          <mxGeometry width="50" height="50" relative="1" as="geometry">
            <mxPoint x="380" y="209.5" as="sourcePoint" />
            <mxPoint x="480" y="209.5" as="targetPoint" />
          </mxGeometry>
        </mxCell>
        <mxCell id="KfuTBqo6q_dxBihYBPka-8" value="Operation&lt;div&gt;&lt;span style=&quot;white-space: pre;&quot;&gt;Huawei&lt;/span&gt;&lt;br&gt;&lt;/div&gt;" style="text;html=1;whiteSpace=wrap;overflow=hidden;rounded=0;" vertex="1" parent="1">
          <mxGeometry x="190" y="550" width="180" height="120" as="geometry" />
        </mxCell>
        <mxCell id="KfuTBqo6q_dxBihYBPka-9" value="&lt;div&gt;Analytic&lt;/div&gt;&lt;div&gt;GCP&lt;/div&gt;" style="text;html=1;whiteSpace=wrap;overflow=hidden;rounded=0;" vertex="1" parent="1">
          <mxGeometry x="540" y="560" width="180" height="120" as="geometry" />
        </mxCell>
        <mxCell id="KfuTBqo6q_dxBihYBPka-10" value="las" style="whiteSpace=wrap;html=1;aspect=fixed;" vertex="1" parent="1">
          <mxGeometry x="40" y="150" width="80" height="80" as="geometry" />
        </mxCell>
        <mxCell id="KfuTBqo6q_dxBihYBPka-11" value="los" style="whiteSpace=wrap;html=1;aspect=fixed;" vertex="1" parent="1">
          <mxGeometry x="40" y="40" width="80" height="80" as="geometry" />
        </mxCell>
        <mxCell id="KfuTBqo6q_dxBihYBPka-12" value="datalake" style="image;sketch=0;aspect=fixed;html=1;points=[];align=center;fontSize=12;image=img/lib/mscae/Data_Lake_Storage.svg;" vertex="1" parent="1">
          <mxGeometry x="310" y="230" width="65.22" height="60" as="geometry" />
        </mxCell>
      </root>
    </mxGraphModel>
  </diagram>
</mxfile>
